<svg width="115" height="111" viewBox="0 0 115 111" fill="none" xmlns="http://www.w3.org/2000/svg">
<path d="M20.3761 0H93.9017C105.049 0 114.062 9.01282 114.062 20.1603V90.8397C114.062 101.987 105.049 111 93.9017 111H20.3761C9.22864 111 0.21582 101.987 0.21582 90.8397V20.1603C0.21582 9.01282 9.22864 0 20.3761 0Z" fill="#470137"/>
<path d="M60.0799 29.1727L45.8492 52.6535L61.0287 77.5573C61.1235 77.7471 61.171 77.9368 61.1235 78.1266C61.0761 78.3163 60.8864 78.174 60.6017 78.2214H49.7389C48.98 78.2214 48.4582 78.174 48.1261 77.6996C47.13 75.7073 46.0864 73.7625 45.0902 71.7702C44.0941 69.8253 43.003 67.833 41.8646 65.7932C40.7261 63.7535 39.5876 61.7137 38.4492 59.6266H38.3543C37.3582 61.6663 36.2671 63.7061 35.1761 65.7458C34.0851 67.7855 32.9941 69.8253 31.9505 71.8176C30.8594 73.8099 29.7684 75.8496 28.6774 77.7945C28.4876 78.2689 28.1082 78.3163 27.5864 78.3163H17.1505C16.9607 78.3163 16.8184 78.4112 16.8184 78.174C16.771 77.9843 16.8184 77.7945 16.9133 77.6522L31.6659 53.4599L17.2928 29.1253C17.1505 28.9355 17.103 28.7458 17.1979 28.6509C17.2928 28.5086 17.4825 28.4612 17.6723 28.4612H28.4402C28.6774 28.4612 28.9146 28.5086 29.1043 28.5561C29.2941 28.6509 29.4364 28.7932 29.5787 28.983C30.48 31.0227 31.5235 33.0625 32.6146 35.1022C33.753 37.142 34.8441 39.1343 36.03 41.1266C37.1684 43.1189 38.212 45.1112 39.2082 47.1509H39.303C40.2992 45.0637 41.3428 43.024 42.3864 41.0317C43.43 39.0394 44.521 37.0471 45.612 35.0548C46.703 33.0625 47.7466 31.0227 48.7902 29.0778C48.8376 28.8881 48.9325 28.6984 49.0748 28.6035C49.2646 28.5086 49.4543 28.4612 49.6915 28.5086H59.7005C59.9376 28.4612 60.1748 28.6035 60.2223 28.8407C60.2697 28.8881 60.1748 29.0778 60.0799 29.1727Z" fill="#FF61F6"/>
<path d="M81.9954 79.2179C78.4851 79.2653 74.9748 78.5538 71.7966 77.0832C68.8082 75.7076 66.3415 73.4307 64.6338 70.632C62.8787 67.7384 62.0249 64.1332 62.0249 59.8166C61.9774 56.3063 62.8787 52.8435 64.6338 49.8076C66.4364 46.7243 69.0454 44.1627 72.1761 42.455C75.4966 40.605 79.4813 39.7038 84.1774 39.7038C84.4146 39.7038 84.7466 39.7038 85.1736 39.7512C85.6005 39.7986 86.0748 39.7986 86.6441 39.8461V24.8563C86.6441 24.5243 86.7864 24.3345 87.1184 24.3345H96.7479C96.9851 24.2871 97.1749 24.4768 97.2223 24.6666V69.9204C97.2223 70.7743 97.2697 71.723 97.3172 72.7666C97.412 73.7627 97.4595 74.7114 97.5069 75.5179C97.5069 75.8499 97.3646 76.1345 97.0325 76.2768C94.5659 77.3204 91.9569 78.0794 89.3005 78.5538C86.8813 78.9807 84.462 79.2179 81.9954 79.2179ZM86.6441 69.7307V48.8589C86.2172 48.764 85.7902 48.6691 85.3633 48.6217C84.8415 48.5743 84.3197 48.5268 83.7979 48.5268C81.9479 48.5268 80.0979 48.9063 78.4377 49.7602C76.8248 50.5666 75.4492 51.7525 74.4056 53.2704C73.362 54.7884 72.8402 56.8281 72.8402 59.2948C72.7928 60.955 73.0774 62.6153 73.6466 64.1807C74.121 65.4614 74.8325 66.5999 75.7813 67.5486C76.6825 68.4025 77.7736 69.0666 79.0069 69.4461C80.2877 69.873 81.6159 70.0627 82.9441 70.0627C83.6556 70.0627 84.3197 70.0153 84.9364 69.9679C85.5531 70.0153 86.0748 69.9204 86.6441 69.7307Z" fill="#FF61F6"/>
</svg>
