<svg width="103" height="117" viewBox="0 0 103 117" fill="none" xmlns="http://www.w3.org/2000/svg">
<path d="M102.372 0L93.0453 104.478L51.1231 116.101L9.31644 104.495L0 0H102.372Z" fill="#264DE4"/>
<path d="M85.0609 97.8255L93.0309 8.54395H51.1858V107.217L85.0609 97.8255Z" fill="#2965F1"/>
<path d="M21.3577 47.2998L22.5063 60.1155H51.1857V47.2998H21.3577Z" fill="#EBEBEB"/>
<path d="M51.1859 21.3599H51.1416H19.0498L20.2148 34.1759H51.1859V21.3599Z" fill="#EBEBEB"/>
<path d="M51.1859 93.9176V80.5837L51.1297 80.5987L36.8566 76.7447L35.9442 66.5234H29.0086H23.0791L24.8746 86.6462L51.1269 93.934L51.1859 93.9176Z" fill="#EBEBEB"/>
<path d="M66.9229 60.1152L65.4353 76.7364L51.1416 80.5944V93.9277L77.4148 86.646L77.6076 84.4808L80.6191 50.7409L80.9318 47.2995L83.2455 21.3599H51.1416V34.1759H69.2004L68.0343 47.2995H51.1416V60.1152H66.9229Z" fill="white"/>
</svg>
