<svg width="75" height="111" viewBox="0 0 75 111" fill="none" xmlns="http://www.w3.org/2000/svg">
<g clip-path="url(#clip0_10_783)">
<path d="M18.5073 111C28.7193 111 37.0073 102.712 37.0073 92.5V74H18.5073C8.29532 74 0.00732422 82.288 0.00732422 92.5C0.00732422 102.712 8.29532 111 18.5073 111Z" fill="#0ACF83"/>
<path d="M0.00732422 55.5C0.00732422 45.288 8.29532 37 18.5073 37H37.0073V74H18.5073C8.29532 74 0.00732422 65.712 0.00732422 55.5Z" fill="#A259FF"/>
<path d="M0.00732422 18.5C0.00732422 8.288 8.29532 0 18.5073 0H37.0073V37H18.5073C8.29532 37 0.00732422 28.712 0.00732422 18.5Z" fill="#F24E1E"/>
<path d="M37.0073 0H55.5073C65.7193 0 74.0073 8.288 74.0073 18.5C74.0073 28.712 65.7193 37 55.5073 37H37.0073V0Z" fill="#FF7262"/>
<path d="M74.0073 55.5C74.0073 65.712 65.7193 74 55.5073 74C45.2953 74 37.0073 65.712 37.0073 55.5C37.0073 45.288 45.2953 37 55.5073 37C65.7193 37 74.0073 45.288 74.0073 55.5Z" fill="#1ABCFE"/>
</g>
<defs>
<clipPath id="clip0_10_783">
<rect width="74.0148" height="111" fill="white"/>
</clipPath>
</defs>
</svg>
