<svg width="1431" height="857" viewBox="0 0 1431 857" fill="none" xmlns="http://www.w3.org/2000/svg">
<path d="M207.409 43.1806L252.639 51.1335C259.496 52.3393 264.066 58.8585 262.86 65.7159L255.215 109.195C254.009 116.053 247.49 120.622 240.632 119.416L195.402 111.463C188.545 110.258 183.975 103.738 185.181 96.8809L192.826 53.4017C194.032 46.5443 200.551 41.9748 207.409 43.1806Z" fill="#470137"/>
<path d="M228.678 65.4212L217.384 78.3264L224.028 95.2881C224.066 95.4151 224.074 95.537 224.024 95.6485C223.975 95.7601 223.873 95.6521 223.693 95.6505L217.011 94.4755C216.544 94.3934 216.228 94.3078 216.075 93.9801C215.678 92.6467 215.246 91.3374 214.849 90.0041C214.447 88.6999 213.991 87.3563 213.511 85.9784C213.031 84.6005 212.552 83.2226 212.077 81.8155L212.019 81.8053C211.185 82.9523 210.294 84.089 209.402 85.2258C208.51 86.3625 207.618 87.4993 206.761 88.612C205.874 89.7196 204.982 90.8563 204.101 91.9347C203.933 92.206 203.694 92.1942 203.373 92.1377L196.953 91.0089C196.837 90.9884 196.739 91.0314 196.765 90.8855C196.756 90.7636 196.806 90.652 196.879 90.5747L208.571 77.2883L202.362 60.764C202.295 60.6319 202.286 60.51 202.355 60.4619C202.428 60.3846 202.55 60.376 202.667 60.3965L209.291 61.5612C209.437 61.5869 209.578 61.6417 209.689 61.6914C209.796 61.7703 209.868 61.8732 209.935 62.0053C210.269 63.3576 210.69 64.7252 211.141 66.098C211.62 67.4759 212.076 68.8195 212.59 70.1734C213.075 71.5221 213.501 72.8606 213.894 74.2231L213.952 74.2334C214.79 73.0572 215.653 71.9153 216.51 70.8026C217.368 69.6899 218.255 68.5823 219.141 67.4747C220.028 66.3671 220.891 65.2252 221.743 64.1417C221.793 64.0301 221.871 63.9237 221.969 63.8807C222.096 63.8429 222.218 63.8342 222.359 63.889L228.516 64.9717C228.667 64.9681 228.798 65.0813 228.801 65.2324C228.825 65.2667 228.746 65.3731 228.678 65.4212V65.4212Z" fill="#FF61F6"/>
<path d="M236.746 98.5773C234.581 98.2268 232.499 97.4094 230.703 96.161C229.013 94.9916 227.742 93.3241 226.994 91.4177C226.228 89.4478 226.092 87.1378 226.559 84.4823C226.91 82.3178 227.839 80.2851 229.247 78.6074C230.689 76.9056 232.571 75.6121 234.682 74.9002C236.925 74.1213 239.473 73.9979 242.362 74.5059C242.508 74.5315 242.712 74.5674 242.97 74.6428C243.227 74.7182 243.519 74.7695 243.864 74.8602L245.486 65.6391C245.522 65.4349 245.63 65.3335 245.834 65.3694L251.758 66.411C251.909 66.4075 252.005 66.5447 252.013 66.6666L247.119 94.5049C247.026 95.0302 246.953 95.6189 246.869 96.266C246.82 96.8891 246.746 97.4778 246.688 97.979C246.652 98.1833 246.534 98.343 246.314 98.3946C244.684 98.7698 242.997 98.9545 241.312 98.959C239.777 98.9599 238.263 98.8441 236.746 98.5773V98.5773ZM240.632 93.244L242.889 80.4045C242.637 80.3 242.385 80.1955 242.127 80.1201C241.811 80.0345 241.495 79.9489 241.174 79.8924C240.036 79.6923 238.857 79.7256 237.744 80.0713C236.664 80.3929 235.69 80.9737 234.884 81.7946C234.077 82.6155 233.536 83.8138 233.269 85.3312C233.06 86.3474 233.056 87.3995 233.237 88.424C233.39 89.2632 233.704 90.0405 234.185 90.7267C234.647 91.3495 235.247 91.876 235.964 92.2429C236.706 92.644 237.503 92.9044 238.32 93.0481C238.757 93.125 239.171 93.1677 239.556 93.2052C239.93 93.3011 240.261 93.2992 240.632 93.244V93.244Z" fill="#FF61F6"/>
<g clip-path="url(#clip0_105_147)">
<path d="M708 33.0079L811.776 -5.01834e-06L844.784 103.776L741.008 136.784L708 33.0079Z" fill="#F7DF1E"/>
<path d="M762.87 111.052L769.283 103.72C771.679 105.949 773.804 107.804 777.147 106.741C780.352 105.721 781.973 103.825 780.422 98.9493L769.876 65.7904L779.628 62.6885L790.219 95.9852C793.431 106.086 788.973 112.567 780.335 115.315C772.533 117.796 766.719 115.196 762.87 111.051" fill="black"/>
<path d="M797.023 99.0381L803.501 91.9149C806.677 94.6637 810.192 96.3072 814.998 94.7784C819.039 93.4932 820.973 90.6533 820.087 87.8668C819.023 84.5231 816 84.1806 810.921 83.6489L808.151 83.3784C800.162 82.6216 794.298 80.3445 791.772 72.403C789.446 65.0886 793.246 57.743 801.954 54.9733C808.154 53.0013 813.299 53.743 818.298 58.3665L812.256 65.6576C809.631 63.1942 807.444 62.5861 804.658 63.4723C801.801 64.3808 800.566 66.768 801.319 69.1361C802.25 72.0619 804.438 72.6703 809.193 73.1524L811.964 73.4218C821.383 74.338 827.203 76.4754 829.795 84.6254C832.587 93.4032 827.219 100.403 817.955 103.35C808.899 106.23 801.674 103.773 797.023 99.0381" fill="black"/>
</g>
<path fill-rule="evenodd" clip-rule="evenodd" d="M1210.7 169.717L1193 149.923L1247.17 130.204L1255.61 153.372L1210.7 169.717Z" fill="#F89920"/>
<path fill-rule="evenodd" clip-rule="evenodd" d="M1210.57 169.359L1209.74 195.9L1263.91 176.181L1255.48 153.015L1210.57 169.359Z" fill="#FFBE22"/>
<path fill-rule="evenodd" clip-rule="evenodd" d="M1361.12 115.009C1368.85 137.404 1343.94 166.831 1305.2 180.934C1266.45 195.034 1228.46 188.502 1219.98 166.377L1361.12 115.009Z" fill="#F0670A"/>
<path fill-rule="evenodd" clip-rule="evenodd" d="M1361.12 115.008C1352.7 92.8266 1314.66 86.2677 1275.88 100.383C1237.09 114.499 1212.17 143.974 1219.98 166.38L1361.12 115.008Z" fill="#FFD00E"/>
<path fill-rule="evenodd" clip-rule="evenodd" d="M1361.11 115.011C1365.93 129.996 1338.89 153.332 1300.27 167.389C1261.64 181.448 1225.93 180.953 1219.99 166.377L1361.11 115.011Z" fill="#F89920"/>
<path fill-rule="evenodd" clip-rule="evenodd" d="M1361.12 115.01C1355.26 100.365 1319.5 99.845 1280.81 113.928C1242.12 128.009 1215.05 151.397 1219.98 166.378L1361.12 115.01Z" fill="#FFBE22"/>
<path d="M1296.01 94.6839C1292.32 81.9369 1288.13 74.867 1283.36 75.0019C1274.14 75.2644 1271.04 104.498 1274.02 141.959C1277.04 179.816 1284.86 208.255 1294.61 207.998C1300.43 207.846 1303.7 198.542 1304.85 182.389C1304.88 182.059 1304.51 182.288 1304.53 181.951C1304.53 181.951 1304.48 181.362 1304.26 181.347L1303.03 181.268C1302.01 196.951 1298.94 205.988 1294.56 206.103C1286.55 206.313 1278.81 178.181 1275.91 141.81C1273.06 106.035 1276.13 77.1042 1283.41 76.8966C1286.86 76.799 1290.72 83.31 1294.14 95.0493C1294.14 95.0493 1296.01 94.6892 1296.01 94.6838L1296.01 94.6839Z" fill="#F0670A"/>
<path d="M1250.32 85.5881C1242.46 90.4261 1254.4 117.291 1275.71 148.243C1297.25 179.52 1318.25 200.238 1326.56 195.14C1331.21 192.29 1329.91 183.64 1323.92 170.582C1323.87 170.464 1323.8 170.358 1323.71 170.268C1323.62 170.179 1323.51 170.109 1323.39 170.062C1323.27 170.015 1323.14 169.993 1323.02 169.997C1322.89 170 1322.76 170.03 1322.65 170.083C1322.53 170.136 1322.43 170.212 1322.34 170.306C1322.26 170.4 1322.19 170.511 1322.15 170.631C1322.11 170.752 1322.09 170.879 1322.1 171.007C1322.11 171.134 1322.14 171.258 1322.2 171.372C1327.76 183.512 1328.96 191.448 1325.57 193.523C1318.74 197.712 1297.97 177.219 1277.27 147.166C1256.92 117.611 1245.11 91.0239 1251.31 87.2025C1254.61 85.1729 1262.44 90.0695 1272.79 100.645C1272.91 100.762 1273.57 101.449 1273.72 101.493C1274.04 101.591 1273.88 100.911 1274.13 100.659C1274.22 100.572 1274.29 100.468 1274.34 100.354C1274.39 100.239 1274.42 100.116 1274.42 99.9915C1274.42 99.8669 1274.4 99.7433 1274.35 99.6277C1274.3 99.5121 1274.24 99.4069 1274.15 99.3179C1263.09 88.0204 1254.79 82.8329 1250.32 85.5863V85.5881Z" fill="#F0670A"/>
<path d="M118.973 308.277L83.8784 293.022L38.7507 312.913L58.746 414.599L156.243 379.467L150.101 330.534L118.973 308.277Z" fill="#FDB300"/>
<path d="M38.7505 312.913L58.7461 414.599L62.5455 326.392L38.7505 312.913Z" fill="#EB6C00"/>
<path d="M132.448 365.988L58.7465 414.599L156.243 379.467L132.448 365.988Z" fill="#EB6C00"/>
<path d="M62.5459 326.392L58.7465 414.599L132.448 365.989L62.5459 326.392Z" fill="#FDAD00"/>
<path d="M83.8783 293.022L62.5456 326.392L118.973 308.277L83.8783 293.022Z" fill="#FDD231"/>
<path d="M132.448 365.988L150.102 330.534L118.973 308.278L132.448 365.988Z" fill="#FDD231"/>
<path d="M132.448 365.989L156.243 379.467L150.102 330.534L132.448 365.989Z" fill="#FDAD00"/>
<path d="M38.7506 312.913L62.5456 326.392L83.8786 293.022L38.7506 312.913Z" fill="#FDAD00"/>
<path d="M118.973 308.277L62.5456 326.392L132.448 365.988L118.973 308.277Z" fill="#FEEEB7"/>
<path fill-rule="evenodd" clip-rule="evenodd" d="M183.413 672.799L185.98 683.572C184.367 683.93 182.678 683.645 181.271 682.778L180.204 681.959L154.302 662.105L145.489 655.345C145.469 655.339 145.451 655.327 145.438 655.31L145.299 655.206L145.271 655.183C145.095 655.033 144.942 654.858 144.816 654.664C144.655 654.427 144.536 654.164 144.466 653.886L144.429 653.718C144.418 653.665 144.41 653.609 144.409 653.554C144.337 653 144.454 652.438 144.741 651.959C145.081 651.375 145.663 650.923 146.377 650.765L153.265 649.242L183.412 672.804L183.415 672.799L183.413 672.799Z" fill="#FCD1CA"/>
<path fill-rule="evenodd" clip-rule="evenodd" d="M180.542 659.836L183.505 673.235L142.403 641.619C142.159 641.444 141.95 641.225 141.784 640.975C141.623 640.735 141.505 640.469 141.435 640.189L141.398 640.024C141.279 639.399 141.404 638.786 141.711 638.272C142.048 637.682 142.631 637.236 143.348 637.078L149.515 635.714L180.541 659.833L180.542 659.836Z" fill="#FF9D8D"/>
<path fill-rule="evenodd" clip-rule="evenodd" d="M140.468 624.113C139.758 624.27 139.172 624.714 138.839 625.301C138.535 625.806 138.412 626.424 138.531 627.043L138.567 627.206C138.638 627.498 138.756 627.759 138.915 627.985C138.922 628.009 138.938 628.026 138.951 628.046C139.116 628.282 139.323 628.485 139.56 628.647L139.604 628.678L180.542 659.835L185.8 683.612C187.405 683.261 188.809 682.296 189.714 680.925C189.72 680.923 189.72 680.923 189.719 680.919L210.526 641.185C210.554 641.142 210.576 641.096 210.598 641.049C210.707 640.831 210.779 640.595 210.817 640.347C210.867 640.049 210.858 639.737 210.787 639.417L204.827 612.464C204.692 611.839 204.32 611.29 203.79 610.932C203.505 610.733 203.182 610.597 202.841 610.53C202.501 610.464 202.15 610.469 201.811 610.546L140.469 624.111L140.468 624.113Z" fill="#FF6661"/>
<path d="M617.1 780L621.304 845.287L596.571 856.444L569.696 853.273L554 789.752L617.1 780Z" fill="#264DE4"/>
<path d="M615.748 841.946L612.156 786.156L586.364 790.142L595.763 850.962L615.748 841.946Z" fill="#2965F1"/>
<path d="M571.67 816.872L573.599 824.662L591.277 821.93L590.056 814.03L571.67 816.872Z" fill="#EBEBEB"/>
<path d="M587.584 798.042L587.557 798.046L567.776 801.103L569.715 808.891L588.805 805.941L587.584 798.042Z" fill="#EBEBEB"/>
<path d="M594.496 842.765L593.226 834.546L593.193 834.56L584.028 833.545L582.492 827.331L578.217 827.992L574.562 828.557L577.586 840.789L594.462 842.78L594.496 842.765Z" fill="#EBEBEB"/>
<path d="M600.976 820.431L601.642 830.817L593.2 834.557L594.47 842.775L609.97 835.784L609.883 834.431L608.525 813.348L608.39 811.197L607.345 794.988L587.557 798.046L588.778 805.945L599.909 804.225L600.44 812.425L590.028 814.034L591.249 821.934L600.976 820.431Z" fill="white"/>
<path d="M657 570L668.168 631.161L679.497 603.118L707.675 602.494L657 570Z" fill="#C20D0D" stroke="#EFEFEF" stroke-width="3" stroke-miterlimit="10"/>
<path d="M877.318 630.545H702.409V681H877.318V630.545Z" fill="#C20D0D"/>
<path d="M757.825 663.371C757.393 663.371 756.929 663.355 756.433 663.323C755.953 663.307 755.457 663.275 754.945 663.227C754.449 663.163 753.977 663.107 753.529 663.059C753.081 662.995 752.681 662.923 752.329 662.843V660.515C752.777 660.547 753.297 660.579 753.889 660.611C754.497 660.643 755.129 660.667 755.785 660.683C756.441 660.699 757.073 660.707 757.681 660.707C758.321 660.707 758.889 660.651 759.385 660.539C759.881 660.411 760.265 660.195 760.537 659.891C760.809 659.587 760.945 659.155 760.945 658.595V657.755C760.945 657.131 760.769 656.651 760.417 656.315C760.065 655.979 759.545 655.811 758.857 655.811H757.201C755.585 655.811 754.337 655.459 753.457 654.755C752.593 654.051 752.161 652.843 752.161 651.131V650.219C752.161 648.507 752.633 647.275 753.577 646.523C754.537 645.755 755.905 645.371 757.681 645.371C758.289 645.371 758.913 645.403 759.553 645.467C760.209 645.515 760.833 645.579 761.425 645.659C762.017 645.739 762.521 645.827 762.937 645.923V648.251C762.233 648.203 761.425 648.155 760.513 648.107C759.617 648.059 758.785 648.035 758.017 648.035C757.409 648.035 756.873 648.099 756.409 648.227C755.945 648.355 755.593 648.587 755.353 648.923C755.113 649.243 754.993 649.723 754.993 650.363V650.939C754.993 651.691 755.193 652.219 755.593 652.523C756.009 652.827 756.601 652.979 757.369 652.979H759.217C760.257 652.979 761.113 653.171 761.785 653.555C762.457 653.939 762.953 654.467 763.273 655.139C763.609 655.795 763.777 656.547 763.777 657.395V658.523C763.777 659.835 763.521 660.843 763.009 661.547C762.497 662.251 761.793 662.731 760.897 662.987C760.001 663.243 758.977 663.371 757.825 663.371ZM771.744 663.347C770.352 663.347 769.24 663.155 768.408 662.771C767.592 662.387 767 661.723 766.632 660.779C766.264 659.819 766.08 658.491 766.08 656.795C766.08 655.067 766.256 653.731 766.608 652.787C766.96 651.827 767.544 651.155 768.36 650.771C769.176 650.387 770.28 650.195 771.672 650.195C772.904 650.195 773.888 650.323 774.624 650.579C775.376 650.819 775.92 651.259 776.256 651.899C776.608 652.523 776.784 653.411 776.784 654.563C776.784 655.379 776.624 656.035 776.304 656.531C775.984 657.011 775.52 657.355 774.912 657.563C774.32 657.771 773.616 657.875 772.8 657.875H769.032C769.064 658.675 769.168 659.315 769.344 659.795C769.536 660.259 769.872 660.595 770.352 660.803C770.848 661.011 771.568 661.115 772.512 661.115H776.4V662.867C775.744 662.995 775.048 663.107 774.312 663.203C773.592 663.299 772.736 663.347 771.744 663.347ZM769.008 656.075H772.512C773.072 656.075 773.48 655.971 773.736 655.763C774.008 655.539 774.144 655.139 774.144 654.563C774.144 654.003 774.064 653.563 773.904 653.243C773.744 652.923 773.48 652.699 773.112 652.571C772.744 652.427 772.264 652.355 771.672 652.355C771 652.355 770.472 652.459 770.088 652.667C769.704 652.875 769.424 653.251 769.248 653.795C769.088 654.323 769.008 655.083 769.008 656.075ZM779.426 663.227V650.363H781.73L782.402 652.427C782.914 651.803 783.482 651.275 784.106 650.843C784.73 650.411 785.474 650.195 786.338 650.195C786.514 650.195 786.698 650.211 786.89 650.243C787.082 650.259 787.258 650.291 787.418 650.339V653.363C787.194 653.331 786.954 653.307 786.698 653.291C786.442 653.275 786.194 653.267 785.954 653.267C785.458 653.267 785.002 653.323 784.586 653.435C784.186 653.547 783.81 653.723 783.458 653.963C783.106 654.187 782.754 654.475 782.402 654.827V663.227H779.426ZM794.4 663.371C793.632 663.371 792.92 663.275 792.264 663.083C791.624 662.875 791.064 662.531 790.584 662.051C790.104 661.555 789.728 660.883 789.456 660.035C789.2 659.187 789.072 658.123 789.072 656.843C789.072 655.531 789.192 654.443 789.432 653.579C789.688 652.715 790.048 652.035 790.512 651.539C790.976 651.043 791.536 650.699 792.192 650.507C792.864 650.299 793.624 650.195 794.472 650.195C795.192 650.195 795.92 650.235 796.656 650.315C797.392 650.379 798.128 650.507 798.864 650.699V652.403H795.36C794.592 652.403 793.968 652.523 793.488 652.763C793.008 653.003 792.648 653.443 792.408 654.083C792.168 654.723 792.048 655.643 792.048 656.843C792.048 658.027 792.168 658.931 792.408 659.555C792.648 660.163 793.008 660.579 793.488 660.803C793.984 661.011 794.616 661.115 795.384 661.115H799.056V662.795C798.672 662.907 798.224 663.011 797.712 663.107C797.2 663.187 796.656 663.251 796.08 663.299C795.52 663.347 794.96 663.371 794.4 663.371ZM803.91 663.371C802.95 663.371 802.166 663.083 801.558 662.507C800.95 661.931 800.646 661.139 800.646 660.131V659.051C800.646 658.059 800.982 657.251 801.654 656.627C802.342 656.003 803.39 655.691 804.798 655.691H808.47V654.563C808.47 654.115 808.39 653.739 808.23 653.435C808.07 653.131 807.782 652.907 807.366 652.763C806.95 652.603 806.318 652.523 805.47 652.523H801.582V650.795C802.174 650.635 802.87 650.499 803.67 650.387C804.47 650.259 805.422 650.195 806.526 650.195C807.582 650.179 808.478 650.307 809.214 650.579C809.95 650.835 810.502 651.267 810.87 651.875C811.254 652.483 811.446 653.315 811.446 654.371V663.227H809.118L808.614 661.835C808.502 661.931 808.302 662.059 808.014 662.219C807.726 662.379 807.366 662.555 806.934 662.747C806.502 662.923 806.022 663.075 805.494 663.203C804.982 663.315 804.454 663.371 803.91 663.371ZM805.35 661.283C805.558 661.283 805.79 661.259 806.046 661.211C806.318 661.147 806.59 661.083 806.862 661.019C807.134 660.939 807.382 660.867 807.606 660.803C807.846 660.723 808.038 660.651 808.182 660.587C808.342 660.523 808.438 660.483 808.47 660.467V657.107L805.686 657.251C804.95 657.315 804.414 657.507 804.078 657.827C803.758 658.147 803.598 658.571 803.598 659.099V659.627C803.598 660.027 803.678 660.355 803.838 660.611C804.014 660.851 804.23 661.019 804.486 661.115C804.758 661.211 805.046 661.267 805.35 661.283ZM814.394 663.227V650.363H816.818L817.37 651.707C817.898 651.307 818.538 650.947 819.29 650.627C820.058 650.307 820.85 650.147 821.666 650.147C822.674 650.147 823.466 650.355 824.042 650.771C824.618 651.171 825.026 651.715 825.266 652.403C825.522 653.091 825.65 653.843 825.65 654.659V663.227H822.674V655.019C822.674 654.555 822.586 654.163 822.41 653.843C822.234 653.523 821.986 653.275 821.666 653.099C821.362 652.923 820.986 652.835 820.538 652.835C820.122 652.835 819.73 652.875 819.362 652.955C819.01 653.035 818.674 653.155 818.354 653.315C818.034 653.475 817.706 653.667 817.37 653.891V663.227H814.394Z" fill="white"/>
<path d="M1041.24 753.369L1057.76 656L1150.95 680.477L1117.49 773.342L1076.52 773.893" fill="#E44D26"/>
<path d="M1078.72 765.822L1102.3 676.047L1140.39 686.053L1111.8 765.313" fill="#F16529"/>
<path d="M1069.96 679.992L1099.24 687.683L1096.18 699.345L1079.69 695.014L1077.63 707.241L1093.04 711.289L1089.99 722.925L1063.89 716.071L1069.96 679.992ZM1062.87 722.062L1074.58 725.139L1072.95 734.679L1085.08 741.599L1081.88 753.775L1059.7 740.808" fill="#EBEBEB"/>
<path d="M1128.42 695.348L1099.19 687.67L1096.13 699.332L1124.28 706.726L1128.42 695.348ZM1120.09 718.394L1092.99 711.276L1089.93 722.937L1104.31 726.716L1098.97 741.513L1085.03 741.586L1081.85 753.71L1107.48 753.357" fill="white"/>
<g clip-path="url(#clip1_105_147)">
<path d="M1383.36 513.714C1392 511.716 1397.39 503.087 1395.39 494.452L1391.77 478.81L1376.13 482.429C1367.49 484.427 1362.1 493.056 1364.1 501.691C1366.1 510.325 1374.73 515.712 1383.36 513.714Z" fill="#0ACF83"/>
<path d="M1356.86 470.406C1354.87 461.771 1360.25 453.142 1368.89 451.144L1384.53 447.525L1391.77 478.81L1376.13 482.429C1367.49 484.427 1358.86 479.04 1356.86 470.406Z" fill="#A259FF"/>
<path d="M1349.63 439.121C1347.63 430.486 1353.01 421.857 1361.65 419.859L1377.29 416.24L1384.53 447.525L1368.89 451.144C1360.25 453.142 1351.62 447.756 1349.63 439.121Z" fill="#F24E1E"/>
<path d="M1377.29 416.24L1392.93 412.621C1401.57 410.623 1410.2 416.009 1412.2 424.644C1414.19 433.279 1408.81 441.908 1400.17 443.906L1384.53 447.525L1377.29 416.24Z" fill="#FF7262"/>
<path d="M1419.43 455.929C1421.43 464.564 1416.05 473.193 1407.41 475.191C1398.78 477.188 1390.15 471.802 1388.15 463.167C1386.15 454.533 1391.54 445.903 1400.17 443.906C1408.81 441.908 1417.44 447.294 1419.43 455.929Z" fill="#1ABCFE"/>
</g>
<defs>
<clipPath id="clip0_105_147">
<rect width="108.899" height="108.899" fill="white" transform="translate(708 33.0079) rotate(-17.6442)"/>
</clipPath>
<clipPath id="clip1_105_147">
<rect width="64.2357" height="96.3343" fill="white" transform="translate(1346 423.48) rotate(-13.0274)"/>
</clipPath>
</defs>
</svg>
