<svg width="8517" height="5100" viewBox="0 0 8517 5100" fill="none" xmlns="http://www.w3.org/2000/svg">
<path d="M1234.97 257.108L1504.28 304.462C1545.11 311.642 1572.32 350.459 1565.14 391.29L1519.62 650.177C1512.44 691.008 1473.62 718.216 1432.79 711.037L1163.48 663.683C1122.65 656.503 1095.44 617.686 1102.62 576.855L1148.14 317.968C1155.32 277.137 1194.14 249.929 1234.97 257.108Z" fill="#470137"/>
<path d="M1361.61 389.534L1294.36 466.375L1333.92 567.37C1334.15 568.126 1334.2 568.851 1333.9 569.516C1333.6 570.18 1333 569.537 1331.93 569.527L1292.14 562.531C1289.36 562.042 1287.48 561.533 1286.57 559.581C1284.2 551.642 1281.63 543.846 1279.27 535.907C1276.87 528.142 1274.16 520.142 1271.3 511.937C1268.45 503.733 1265.59 495.528 1262.76 487.15L1262.42 487.089C1257.45 493.919 1252.14 500.687 1246.83 507.456C1241.52 514.225 1236.21 520.993 1231.11 527.618C1225.83 534.213 1220.52 540.982 1215.27 547.403C1214.27 549.018 1212.85 548.948 1210.94 548.611L1172.71 541.89C1172.02 541.768 1171.44 542.024 1171.59 541.155C1171.54 540.43 1171.83 539.765 1172.27 539.305L1241.89 460.194L1204.92 361.803C1204.52 361.017 1204.46 360.291 1204.87 360.005C1205.31 359.545 1206.04 359.493 1206.73 359.615L1246.17 366.55C1247.04 366.703 1247.88 367.03 1248.55 367.326C1249.18 367.795 1249.61 368.408 1250.01 369.195C1252 377.247 1254.5 385.39 1257.19 393.564C1260.04 401.768 1262.76 409.768 1265.82 417.83C1268.7 425.86 1271.24 433.83 1273.58 441.943L1273.93 442.004C1278.92 435.001 1284.05 428.201 1289.16 421.576C1294.27 414.951 1299.55 408.356 1304.82 401.761C1310.1 395.166 1315.24 388.367 1320.32 381.916C1320.61 381.251 1321.08 380.617 1321.66 380.361C1322.42 380.136 1323.15 380.084 1323.98 380.411L1360.64 386.857C1361.54 386.836 1362.32 387.51 1362.34 388.41C1362.49 388.614 1362.02 389.248 1361.61 389.534V389.534Z" fill="#FF61F6"/>
<path d="M1409.65 586.955C1396.76 584.868 1384.36 580.001 1373.67 572.568C1363.61 565.604 1356.04 555.676 1351.59 544.325C1347.02 532.595 1346.22 518.841 1349 503.029C1351.08 490.141 1356.61 478.038 1365 468.048C1373.59 457.916 1384.79 450.213 1397.36 445.975C1410.71 441.337 1425.89 440.602 1443.09 443.627C1443.96 443.779 1445.18 443.993 1446.71 444.442C1448.24 444.891 1449.98 445.196 1452.03 445.737L1461.69 390.832C1461.9 389.615 1462.55 389.012 1463.76 389.226L1499.03 395.428C1499.93 395.407 1500.51 396.224 1500.56 396.95L1471.41 562.707C1470.86 565.834 1470.42 569.34 1469.93 573.193C1469.63 576.903 1469.19 580.408 1468.85 583.393C1468.63 584.609 1467.93 585.56 1466.62 585.867C1456.92 588.101 1446.87 589.201 1436.83 589.227C1427.7 589.233 1418.68 588.544 1409.65 586.955V586.955ZM1432.79 555.199L1446.23 478.749C1444.73 478.127 1443.22 477.504 1441.69 477.055C1439.81 476.546 1437.93 476.036 1436.02 475.7C1429.24 474.508 1422.22 474.707 1415.59 476.765C1409.16 478.68 1403.36 482.138 1398.56 487.026C1393.76 491.914 1390.54 499.049 1388.95 508.084C1387.7 514.134 1387.68 520.399 1388.75 526.499C1389.67 531.496 1391.54 536.124 1394.4 540.21C1397.16 543.918 1400.72 547.053 1405 549.238C1409.41 551.626 1414.16 553.177 1419.02 554.032C1421.63 554.49 1424.09 554.744 1426.38 554.968C1428.61 555.539 1430.58 555.527 1432.79 555.199V555.199Z" fill="#FF61F6"/>
<g clip-path="url(#clip0_105_195)">
<path d="M4215.63 196.538L4833.54 -1.49073e-05L5030.08 617.911L4412.17 814.45L4215.63 196.538Z" fill="#F7DF1E"/>
<path d="M4542.34 661.233L4580.53 617.576C4594.79 630.848 4607.45 641.894 4627.35 635.563C4646.43 629.494 4656.09 618.204 4646.85 589.172L4584.06 391.734L4642.12 373.265L4705.18 571.523C4724.31 631.666 4697.77 670.255 4646.33 686.615C4599.88 701.39 4565.26 685.908 4542.34 661.229" fill="black"/>
<path d="M4745.7 589.701L4784.27 547.287C4803.18 563.654 4824.11 573.44 4852.73 564.337C4876.79 556.685 4888.3 539.775 4883.03 523.183C4876.69 503.274 4858.69 501.235 4828.45 498.069L4811.96 496.459C4764.39 491.952 4729.47 478.394 4714.43 431.108C4700.58 387.556 4723.21 343.818 4775.06 327.326C4811.97 315.585 4842.61 320.001 4872.37 347.53L4836.4 390.944C4820.77 376.276 4807.75 372.655 4791.16 377.932C4774.15 383.341 4766.79 397.556 4771.28 411.656C4776.82 429.077 4789.85 432.7 4818.16 435.57L4834.66 437.174C4890.75 442.629 4925.4 455.356 4940.83 503.883C4957.46 556.149 4925.5 597.827 4870.33 615.373C4816.41 632.524 4773.39 617.891 4745.7 589.701" fill="black"/>
</g>
<path fill-rule="evenodd" clip-rule="evenodd" d="M7208.84 1010.54L7103.46 892.684L7426.03 775.27L7476.24 913.22L7208.84 1010.54Z" fill="#F89920"/>
<path fill-rule="evenodd" clip-rule="evenodd" d="M7208.07 1008.41L7203.1 1166.45L7525.67 1049.03L7475.46 911.092L7208.07 1008.41Z" fill="#FFBE22"/>
<path fill-rule="evenodd" clip-rule="evenodd" d="M8104.47 684.799C8150.5 818.143 8002.2 993.361 7771.51 1077.33C7540.8 1161.29 7314.57 1122.39 7264.11 990.657L8104.47 684.799Z" fill="#F0670A"/>
<path fill-rule="evenodd" clip-rule="evenodd" d="M8104.49 684.792C8054.35 552.716 7827.88 513.662 7596.94 597.706C7365.99 681.76 7217.61 857.263 7264.11 990.67L8104.49 684.792Z" fill="#FFD00E"/>
<path fill-rule="evenodd" clip-rule="evenodd" d="M8104.45 684.81C8133.14 774.03 7972.13 912.983 7742.15 996.679C7512.16 1080.39 7299.51 1077.45 7264.14 990.657L8104.45 684.81Z" fill="#F89920"/>
<path fill-rule="evenodd" clip-rule="evenodd" d="M8104.46 684.802C8069.63 597.599 7856.64 594.504 7626.28 678.358C7395.92 762.201 7234.77 901.46 7264.12 990.659L8104.46 684.802Z" fill="#FFBE22"/>
<path d="M7716.79 563.775C7694.84 487.875 7669.87 445.78 7641.47 446.582C7586.57 448.146 7568.12 622.212 7585.88 845.262C7603.84 1070.68 7650.42 1240.01 7708.49 1238.48C7743.11 1237.57 7762.61 1182.18 7769.46 1085.99C7769.6 1084.03 7767.41 1085.39 7767.54 1083.39C7767.54 1083.39 7767.25 1079.88 7765.95 1079.79L7758.59 1079.32C7752.56 1172.7 7734.28 1226.51 7708.19 1227.2C7660.46 1228.44 7614.39 1060.94 7597.15 844.374C7580.17 631.36 7598.44 459.1 7641.8 457.864C7662.32 457.283 7685.32 496.051 7705.67 565.951C7705.67 565.951 7716.8 563.806 7716.79 563.774L7716.79 563.775Z" fill="#F0670A"/>
<path d="M7444.75 509.616C7397.98 538.423 7469.03 698.387 7595.94 882.679C7724.2 1068.91 7849.21 1192.28 7898.73 1161.92C7926.4 1144.95 7918.64 1093.44 7882.99 1015.69C7882.7 1014.99 7882.27 1014.36 7881.73 1013.83C7881.19 1013.29 7880.54 1012.88 7879.84 1012.6C7879.13 1012.32 7878.38 1012.19 7877.62 1012.21C7876.86 1012.23 7876.11 1012.4 7875.42 1012.72C7874.73 1013.04 7874.11 1013.49 7873.6 1014.05C7873.09 1014.61 7872.7 1015.27 7872.45 1015.99C7872.2 1016.7 7872.09 1017.46 7872.14 1018.22C7872.2 1018.98 7872.4 1019.72 7872.74 1020.4C7905.87 1092.68 7912.99 1139.93 7892.82 1152.29C7852.12 1177.23 7728.47 1055.21 7605.24 876.266C7484.04 700.288 7413.73 541.982 7450.67 519.229C7470.28 507.144 7516.93 536.299 7578.57 599.269C7579.25 599.966 7583.19 604.054 7584.07 604.318C7585.98 604.899 7585.02 600.853 7586.55 599.353C7587.08 598.835 7587.51 598.217 7587.8 597.535C7588.09 596.853 7588.24 596.12 7588.25 595.378C7588.26 594.636 7588.12 593.9 7587.84 593.212C7587.57 592.524 7587.16 591.897 7586.64 591.367C7520.78 524.098 7471.37 493.21 7444.75 509.605V509.616Z" fill="#F0670A"/>
<path d="M708.401 1835.57L499.439 1744.73L230.736 1863.17L349.794 2468.64L930.318 2259.45L893.749 1968.09L708.401 1835.57Z" fill="#FDB300"/>
<path d="M230.732 1863.17L349.792 2468.64L372.414 1943.43L230.732 1863.17Z" fill="#EB6C00"/>
<path d="M788.631 2179.2L349.793 2468.64L930.313 2259.45L788.631 2179.2Z" fill="#EB6C00"/>
<path d="M372.418 1943.43L349.796 2468.64L788.637 2179.2L372.418 1943.43Z" fill="#FDAD00"/>
<path d="M499.437 1744.73L372.415 1943.43L708.399 1835.57L499.437 1744.73Z" fill="#FDD231"/>
<path d="M788.634 2179.2L893.748 1968.09L708.4 1835.57L788.634 2179.2Z" fill="#FDD231"/>
<path d="M788.637 2179.2L930.317 2259.45L893.749 1968.09L788.637 2179.2Z" fill="#FDAD00"/>
<path d="M230.735 1863.17L372.416 1943.43L499.439 1744.73L230.735 1863.17Z" fill="#FDAD00"/>
<path d="M708.398 1835.57L372.415 1943.43L788.634 2179.2L708.398 1835.57Z" fill="#FEEEB7"/>
<path fill-rule="evenodd" clip-rule="evenodd" d="M1092.09 4006.04L1107.38 4070.18C1097.77 4072.31 1087.71 4070.61 1079.34 4065.45L1072.99 4060.58L918.753 3942.36L866.283 3902.11C866.161 3902.07 866.053 3902 865.975 3901.9L865.151 3901.28L864.982 3901.14C863.933 3900.25 863.02 3899.21 862.275 3898.05C861.312 3896.64 860.606 3895.07 860.19 3893.42L859.97 3892.42C859.9 3892.11 859.854 3891.77 859.85 3891.44C859.422 3888.14 860.118 3884.8 861.825 3881.95C863.851 3878.47 867.316 3875.78 871.568 3874.84L912.582 3865.77L1092.08 4006.06L1092.11 4006.03L1092.09 4006.04Z" fill="#FCD1CA"/>
<path fill-rule="evenodd" clip-rule="evenodd" d="M1074.99 3928.84L1092.64 4008.63L847.907 3820.38C846.456 3819.33 845.208 3818.03 844.223 3816.54C843.264 3815.12 842.56 3813.53 842.143 3811.87L841.925 3810.88C841.212 3807.16 841.96 3803.51 843.789 3800.45C845.793 3796.94 849.267 3794.28 853.532 3793.34L890.254 3785.22L1074.99 3928.83L1074.99 3928.84Z" fill="#FF9D8D"/>
<path fill-rule="evenodd" clip-rule="evenodd" d="M836.382 3716.14C832.156 3717.08 828.666 3719.72 826.685 3723.22C824.871 3726.22 824.144 3729.9 824.849 3733.59L825.064 3734.56C825.489 3736.3 826.19 3737.85 827.135 3739.2C827.18 3739.34 827.272 3739.44 827.353 3739.56C828.336 3740.96 829.564 3742.17 830.98 3743.14L831.242 3743.33L1075 3928.84L1106.3 4070.42C1115.86 4068.32 1124.22 4062.58 1129.61 4054.41C1129.65 4054.41 1129.65 4054.41 1129.64 4054.38L1253.53 3817.8C1253.69 3817.54 1253.82 3817.26 1253.96 3816.99C1254.61 3815.69 1255.04 3814.28 1255.26 3812.8C1255.56 3811.03 1255.5 3809.17 1255.08 3807.27L1219.6 3646.78C1218.79 3643.06 1216.58 3639.79 1213.42 3637.66C1211.73 3636.48 1209.8 3635.66 1207.77 3635.27C1205.74 3634.87 1203.66 3634.9 1201.64 3635.36L836.392 3716.13L836.382 3716.14Z" fill="#FF6661"/>
<path d="M3674.38 4644.34L3699.41 5033.07L3552.15 5099.51L3392.13 5080.62L3298.67 4702.4L3674.38 4644.34Z" fill="#264DE4"/>
<path d="M3666.34 5013.18L3644.95 4680.99L3491.37 4704.73L3547.34 5066.87L3666.34 5013.18Z" fill="#2965F1"/>
<path d="M3403.88 4863.88L3415.37 4910.26L3520.62 4894L3513.36 4846.96L3403.88 4863.88Z" fill="#EBEBEB"/>
<path d="M3498.64 4751.76L3498.48 4751.79L3380.7 4769.99L3392.24 4816.37L3505.91 4798.8L3498.64 4751.76Z" fill="#EBEBEB"/>
<path d="M3539.8 5018.06L3532.23 4969.12L3532.04 4969.21L3477.47 4963.16L3468.32 4926.16L3442.87 4930.1L3421.1 4933.46L3439.11 5006.29L3539.59 5018.15L3539.8 5018.06Z" fill="#EBEBEB"/>
<path d="M3578.38 4885.07L3582.35 4946.92L3532.08 4969.18L3539.64 5018.12L3631.93 4976.49L3631.41 4968.44L3623.33 4842.9L3622.53 4830.09L3616.3 4733.58L3498.48 4751.79L3505.75 4798.82L3572.03 4788.58L3575.19 4837.41L3513.19 4846.99L3520.46 4894.02L3578.38 4885.07Z" fill="white"/>
<path d="M3911.96 3393.94L3978.46 3758.11L4045.91 3591.13L4213.69 3587.42L3911.96 3393.94Z" fill="#C20D0D"/>
<path fill-rule="evenodd" clip-rule="evenodd" d="M3899.48 3375.33L4243.16 3595.7L4051.99 3599.93L3975.21 3790.01L3899.48 3375.33ZM3924.44 3412.55L3981.71 3726.21L4039.84 3582.33L4184.23 3579.14L3924.44 3412.55Z" fill="#EFEFEF"/>
<path d="M5223.8 3754.44H4182.34V4054.86H5223.8V3754.44Z" fill="#C20D0D"/>
<path d="M4409.41 3970C4405.34 3970 4400.96 3969.87 4396.28 3969.6C4391.76 3969.47 4387.08 3969.2 4382.25 3968.8C4377.58 3968.27 4373.12 3967.8 4368.9 3967.4C4364.68 3966.87 4360.9 3966.27 4357.58 3965.6V3946.2C4361.81 3946.47 4366.71 3946.73 4372.29 3947C4378.03 3947.27 4383.99 3947.47 4390.17 3947.6C4396.36 3947.73 4402.32 3947.8 4408.05 3947.8C4414.09 3947.8 4419.44 3947.33 4424.12 3946.4C4428.8 3945.33 4432.42 3943.53 4434.99 3941C4437.55 3938.47 4438.83 3934.87 4438.83 3930.2V3923.2C4438.83 3918 4437.17 3914 4433.85 3911.2C4430.53 3908.4 4425.63 3907 4419.14 3907H4403.53C4388.29 3907 4376.52 3904.07 4368.22 3898.2C4360.07 3892.33 4356 3882.27 4356 3868V3860.4C4356 3846.13 4360.45 3835.87 4369.35 3829.6C4378.41 3823.2 4391.31 3820 4408.05 3820C4413.79 3820 4419.67 3820.27 4425.71 3820.8C4431.89 3821.2 4437.78 3821.73 4443.36 3822.4C4448.94 3823.07 4453.69 3823.8 4457.62 3824.6V3844C4450.98 3843.6 4443.36 3843.2 4434.76 3842.8C4426.31 3842.4 4418.46 3842.2 4411.22 3842.2C4405.49 3842.2 4400.43 3842.73 4396.06 3843.8C4391.68 3844.87 4388.36 3846.8 4386.1 3849.6C4383.84 3852.27 4382.71 3856.27 4382.71 3861.6V3866.4C4382.71 3872.67 4384.59 3877.07 4388.36 3879.6C4392.29 3882.13 4397.87 3883.4 4405.11 3883.4H4422.54C4432.34 3883.4 4440.42 3885 4446.75 3888.2C4453.09 3891.4 4457.77 3895.8 4460.79 3901.4C4463.95 3906.87 4465.54 3913.13 4465.54 3920.2V3929.6C4465.54 3940.53 4463.12 3948.93 4458.3 3954.8C4453.47 3960.67 4446.83 3964.67 4438.38 3966.8C4429.93 3968.93 4420.27 3970 4409.41 3970Z" fill="white"/>
<path d="M4540.67 3969.8C4527.54 3969.8 4517.05 3968.2 4509.21 3965C4501.51 3961.8 4495.93 3956.27 4492.46 3948.4C4488.99 3940.4 4487.26 3929.33 4487.26 3915.2C4487.26 3900.8 4488.92 3889.67 4492.23 3881.8C4495.55 3873.8 4501.06 3868.2 4508.76 3865C4516.45 3861.8 4526.86 3860.2 4539.99 3860.2C4551.61 3860.2 4560.88 3861.27 4567.83 3863.4C4574.92 3865.4 4580.05 3869.07 4583.22 3874.4C4586.53 3879.6 4588.19 3887 4588.19 3896.6C4588.19 3903.4 4586.69 3908.87 4583.67 3913C4580.65 3917 4576.27 3919.87 4570.54 3921.6C4564.96 3923.33 4558.32 3924.2 4550.63 3924.2H4515.09C4515.39 3930.87 4516.38 3936.2 4518.04 3940.2C4519.85 3944.07 4523.01 3946.87 4527.54 3948.6C4532.22 3950.33 4539.01 3951.2 4547.91 3951.2H4584.57V3965.8C4578.39 3966.87 4571.82 3967.8 4564.88 3968.6C4558.09 3969.4 4550.02 3969.8 4540.67 3969.8ZM4514.87 3909.2H4547.91C4553.19 3909.2 4557.04 3908.33 4559.45 3906.6C4562.02 3904.73 4563.3 3901.4 4563.3 3896.6C4563.3 3891.93 4562.54 3888.27 4561.04 3885.6C4559.53 3882.93 4557.04 3881.07 4553.57 3880C4550.1 3878.8 4545.57 3878.2 4539.99 3878.2C4533.65 3878.2 4528.67 3879.07 4525.05 3880.8C4521.43 3882.53 4518.79 3885.67 4517.13 3890.2C4515.62 3894.6 4514.87 3900.93 4514.87 3909.2Z" fill="white"/>
<path d="M4613.1 3968.8V3861.6H4634.83L4641.17 3878.8C4645.99 3873.6 4651.35 3869.2 4657.24 3865.6C4663.12 3862 4670.14 3860.2 4678.28 3860.2C4679.94 3860.2 4681.68 3860.33 4683.49 3860.6C4685.3 3860.73 4686.96 3861 4688.47 3861.4V3886.6C4686.36 3886.33 4684.09 3886.13 4681.68 3886C4679.26 3885.87 4676.93 3885.8 4674.66 3885.8C4669.98 3885.8 4665.68 3886.27 4661.76 3887.2C4657.99 3888.13 4654.44 3889.6 4651.12 3891.6C4647.81 3893.47 4644.49 3895.87 4641.17 3898.8V3968.8H4613.1Z" fill="white"/>
<path d="M4754.31 3970C4747.07 3970 4740.36 3969.2 4734.17 3967.6C4728.14 3965.87 4722.86 3963 4718.33 3959C4713.8 3954.87 4710.26 3949.27 4707.69 3942.2C4705.28 3935.13 4704.07 3926.27 4704.07 3915.6C4704.07 3904.67 4705.2 3895.6 4707.47 3888.4C4709.88 3881.2 4713.27 3875.53 4717.65 3871.4C4722.03 3867.27 4727.31 3864.4 4733.49 3862.8C4739.83 3861.07 4747 3860.2 4754.99 3860.2C4761.78 3860.2 4768.65 3860.53 4775.59 3861.2C4782.53 3861.73 4789.47 3862.8 4796.41 3864.4V3878.6H4763.37C4756.12 3878.6 4750.24 3879.6 4745.71 3881.6C4741.19 3883.6 4737.79 3887.27 4735.53 3892.6C4733.27 3897.93 4732.13 3905.6 4732.13 3915.6C4732.13 3925.47 4733.27 3933 4735.53 3938.2C4737.79 3943.27 4741.19 3946.73 4745.71 3948.6C4750.39 3950.33 4756.35 3951.2 4763.59 3951.2H4798.22V3965.2C4794.6 3966.13 4790.37 3967 4785.55 3967.8C4780.72 3968.47 4775.59 3969 4770.16 3969.4C4764.88 3969.8 4759.59 3970 4754.31 3970Z" fill="white"/>
<path d="M4843.99 3970C4834.94 3970 4827.54 3967.6 4821.81 3962.8C4816.08 3958 4813.21 3951.4 4813.21 3943V3934C4813.21 3925.73 4816.38 3919 4822.71 3913.8C4829.2 3908.6 4839.09 3906 4852.36 3906H4886.99V3896.6C4886.99 3892.87 4886.24 3889.73 4884.73 3887.2C4883.22 3884.67 4880.5 3882.8 4876.58 3881.6C4872.66 3880.27 4866.7 3879.6 4858.7 3879.6H4822.04V3865.2C4827.62 3863.87 4834.18 3862.73 4841.73 3861.8C4849.27 3860.73 4858.25 3860.2 4868.66 3860.2C4878.62 3860.07 4887.06 3861.13 4894.01 3863.4C4900.95 3865.53 4906.15 3869.13 4909.62 3874.2C4913.24 3879.27 4915.05 3886.2 4915.05 3895V3968.8H4893.1L4888.35 3957.2C4887.29 3958 4885.41 3959.07 4882.69 3960.4C4879.97 3961.73 4876.58 3963.2 4872.51 3964.8C4868.43 3966.27 4863.91 3967.53 4858.93 3968.6C4854.1 3969.53 4849.12 3970 4843.99 3970ZM4857.57 3952.6C4859.53 3952.6 4861.72 3952.4 4864.13 3952C4866.7 3951.47 4869.26 3950.93 4871.83 3950.4C4874.39 3949.73 4876.73 3949.13 4878.84 3948.6C4881.11 3947.93 4882.92 3947.33 4884.27 3946.8C4885.78 3946.27 4886.69 3945.93 4886.99 3945.8V3917.8L4860.74 3919C4853.8 3919.53 4848.74 3921.13 4845.57 3923.8C4842.56 3926.47 4841.05 3930 4841.05 3934.4V3938.8C4841.05 3942.13 4841.8 3944.87 4843.31 3947C4844.97 3949 4847.01 3950.4 4849.42 3951.2C4851.99 3952 4854.7 3952.47 4857.57 3952.6Z" fill="white"/>
<path d="M4942.86 3968.8V3861.6H4965.71L4970.92 3872.8C4975.9 3869.47 4981.93 3866.47 4989.03 3863.8C4996.27 3861.13 5003.74 3859.8 5011.43 3859.8C5020.94 3859.8 5028.41 3861.53 5033.84 3865C5039.27 3868.33 5043.12 3872.87 5045.38 3878.6C5047.79 3884.33 5049 3890.6 5049 3897.4V3968.8H5020.94V3900.4C5020.94 3896.53 5020.11 3893.27 5018.45 3890.6C5016.79 3887.93 5014.45 3885.87 5011.43 3884.4C5008.56 3882.93 5005.02 3882.2 5000.79 3882.2C4996.87 3882.2 4993.17 3882.53 4989.7 3883.2C4986.39 3883.87 4983.22 3884.87 4980.2 3886.2C4977.18 3887.53 4974.09 3889.13 4970.92 3891V3968.8H4942.86Z" fill="white"/>
<path d="M6199.85 4485.77L6298.18 3906.01L6853.06 4051.75L6653.87 4604.7L6409.89 4607.97" fill="#E44D26"/>
<path d="M6423 4559.92L6563.4 4025.38L6790.22 4084.95L6619.99 4556.89" fill="#F16529"/>
<path d="M6370.85 4048.86L6545.2 4094.66L6526.97 4164.1L6428.78 4138.31L6416.52 4211.11L6508.29 4235.21L6490.09 4304.5L6334.7 4263.68L6370.85 4048.86ZM6328.6 4299.36L6398.34 4317.68L6388.65 4374.48L6460.88 4415.69L6441.84 4488.19L6309.74 4410.98" fill="#EBEBEB"/>
<path d="M6718.95 4140.29L6544.9 4094.58L6526.66 4164.02L6694.29 4208.04L6718.95 4140.29ZM6669.34 4277.52L6507.98 4235.13L6489.75 4304.57L6575.39 4327.07L6543.59 4415.18L6460.58 4415.61L6441.62 4487.8L6594.22 4485.7" fill="white"/>
<g clip-path="url(#clip1_105_195)">
<path d="M8236.94 3058.8C8288.35 3046.9 8320.42 2995.52 8308.53 2944.11L8286.98 2850.97L8193.84 2872.52C8142.42 2884.41 8110.35 2935.79 8122.25 2987.21C8134.14 3038.62 8185.52 3070.69 8236.94 3058.8Z" fill="#0ACF83"/>
<path d="M8079.15 2800.93C8067.25 2749.51 8099.32 2698.13 8150.74 2686.24L8243.88 2664.69L8286.97 2850.97L8193.84 2872.52C8142.42 2884.41 8091.04 2852.34 8079.15 2800.93Z" fill="#A259FF"/>
<path d="M8036.05 2614.65C8024.15 2563.24 8056.22 2511.85 8107.64 2499.96L8200.78 2478.41L8243.88 2664.69L8150.74 2686.24C8099.32 2698.13 8047.94 2666.06 8036.05 2614.65Z" fill="#F24E1E"/>
<path d="M8200.78 2478.41L8293.92 2456.86C8345.33 2444.96 8396.71 2477.04 8408.6 2528.45C8420.5 2579.86 8388.43 2631.24 8337.01 2643.14L8243.88 2664.69L8200.78 2478.41Z" fill="#FF7262"/>
<path d="M8451.71 2714.73C8463.6 2766.14 8431.53 2817.52 8380.12 2829.42C8328.7 2841.31 8277.32 2809.24 8265.43 2757.83C8253.53 2706.41 8285.6 2655.03 8337.02 2643.14C8388.43 2631.24 8439.81 2663.31 8451.71 2714.73Z" fill="#1ABCFE"/>
</g>
<defs>
<clipPath id="clip0_105_195">
<rect width="648.415" height="648.415" fill="white" transform="translate(4215.63 196.538) rotate(-17.6442)"/>
</clipPath>
<clipPath id="clip1_105_195">
<rect width="382.477" height="573.601" fill="white" transform="translate(8014.46 2521.52) rotate(-13.0274)"/>
</clipPath>
</defs>
</svg>
