<svg width="112" height="111" viewBox="0 0 112 111" fill="none" xmlns="http://www.w3.org/2000/svg">
<g clip-path="url(#clip0_10_789)">
<path d="M0.21582 0H111.216V111H0.21582V0Z" fill="#F7DF1E"/>
<path d="M29.4018 92.7597L37.8963 87.619C39.535 90.5245 41.0258 92.9829 44.6016 92.9829C48.0292 92.9829 50.1901 91.6421 50.1901 86.4269V50.9597H60.6213V86.5743C60.6213 97.3783 54.2883 102.296 45.0487 102.296C36.7042 102.296 31.8603 97.9742 29.4016 92.7588" fill="black"/>
<path d="M66.2874 91.6419L74.7808 86.7242C77.0167 90.3756 79.9226 93.0578 85.0634 93.0578C89.3856 93.0578 92.1417 90.8968 92.1417 87.9163C92.1417 84.3399 89.3105 83.073 84.5417 80.9875L81.9347 79.869C74.4087 76.6657 69.4163 72.6422 69.4163 64.1479C69.4163 56.3243 75.377 50.3633 84.6912 50.3633C91.3226 50.3633 96.0912 52.6733 99.5183 58.7087L91.3966 63.9241C89.6083 60.7205 87.6716 59.454 84.6913 59.454C81.6364 59.454 79.699 61.3912 79.699 63.9241C79.699 67.0536 81.6364 68.3206 86.1065 70.258L88.7141 71.3756C97.5809 75.1758 102.573 79.0499 102.573 87.7673C102.573 97.1561 95.1969 102.297 85.2872 102.297C75.601 102.297 69.342 97.6775 66.2875 91.6419" fill="black"/>
</g>
<defs>
<clipPath id="clip0_10_789">
<rect width="111" height="111" fill="white" transform="translate(0.21582)"/>
</clipPath>
</defs>
</svg>
