<svg width="112" height="111" viewBox="0 0 112 111" fill="none" xmlns="http://www.w3.org/2000/svg">
<path fill-rule="evenodd" clip-rule="evenodd" d="M55.8359 92.8939L56.1312 110.999C53.4291 111 50.8328 109.949 48.8929 108.068L47.4792 106.385L13.1331 65.5426L1.45069 51.638C1.42 51.6216 1.39542 51.5957 1.38056 51.5642L1.196 51.3501L1.15909 51.3022C0.930626 51.0008 0.747797 50.6675 0.616493 50.3129C0.441772 49.8781 0.345543 49.4157 0.332275 48.9472V48.6667C0.332275 48.5781 0.339658 48.4858 0.358113 48.3972C0.438883 47.4878 0.823791 46.6322 1.45069 45.9685C2.19999 45.1564 3.28888 44.6396 4.48481 44.6396H16.0196L55.8322 92.9013L55.8396 92.8939H55.8359Z" fill="#FCD1CA"/>
<path fill-rule="evenodd" clip-rule="evenodd" d="M55.8286 71.183V93.6214L1.36951 28.6352C1.04244 28.2689 0.784778 27.8462 0.60914 27.3876C0.436691 26.9484 0.341774 26.4825 0.328613 26.0108V25.734C0.358142 24.6931 0.775241 23.7592 1.44703 23.0468C2.19264 22.2237 3.28152 21.718 4.48114 21.718H14.8089L55.8286 71.1793V71.183Z" fill="#FF9D8D"/>
<path fill-rule="evenodd" clip-rule="evenodd" d="M4.45897 0.00377278C3.27042 0.00377278 2.17784 0.505769 1.43962 1.3252C0.775212 2.02283 0.361804 2.96776 0.332275 3.99758V4.27073C0.343349 4.76165 0.439318 5.21935 0.612802 5.63645C0.616493 5.67705 0.634949 5.71027 0.649713 5.74718C0.82997 6.18128 1.08761 6.579 1.41009 6.92097L1.46915 6.98741L55.8285 71.1837V111C58.5152 111.006 61.0979 109.962 63.0262 108.091C63.0373 108.091 63.0373 108.091 63.0373 108.084L110.284 51.9935C110.343 51.9344 110.395 51.868 110.446 51.8015C110.697 51.4915 110.897 51.1408 111.044 50.7569C111.229 50.2992 111.325 49.7972 111.325 49.262V4.12677C111.329 3.08063 110.93 2.07306 110.21 1.31413C109.825 0.896627 109.358 0.56408 108.837 0.337796C108.317 0.111512 107.755 -0.00351685 107.187 8.19063e-05H4.46266L4.45897 0.00377278Z" fill="#FF6661"/>
</svg>
