<svg width="536" height="411" viewBox="0 0 536 411" fill="none" xmlns="http://www.w3.org/2000/svg">
<path d="M137.03 0.0749512V34.3701H34.3012V273.974H137.03V411H0V376.705H102.731V308.269H0V0.0749512H137.03Z" fill="#C10C0C"/>
<path d="M172.578 34.295V0H309.605V34.295H172.578ZM309.611 376.622V410.917H172.584V68.4299H309.611V342.487H206.879V376.622H309.611ZM206.879 102.729V308.192H275.314V102.729L206.879 102.729Z" fill="#C10C0C"/>
<path d="M482.181 0.0749512V34.3701H379.45V376.705H482.181V411H345.155V0.0749512H482.181Z" fill="#C10C0C"/>
<path d="M424.313 92.8684H535.592V325.792H424.313V92.8684ZM452.058 119.145L452.139 298.623C470.635 298.677 489.131 298.731 507.627 298.785C507.622 238.905 507.617 179.025 507.612 119.145H452.058Z" fill="#C10C0C"/>
</svg>
