<svg width="123" height="111" viewBox="0 0 123 111" fill="none" xmlns="http://www.w3.org/2000/svg">
<path d="M61.3927 0L26.8247 3.65493L0.0620117 39.5808L61.3927 111L122.723 39.5808L95.9612 3.65493L61.3927 0Z" fill="#FDB300"/>
<path d="M0.0621338 39.5811L61.3929 111L24.904 39.5811H0.0621338Z" fill="#EB6C00"/>
<path d="M97.8814 39.5811L61.3929 111L122.723 39.5811H97.8814Z" fill="#EB6C00"/>
<path d="M24.9041 39.5811L61.393 111L97.8819 39.5811H24.9041Z" fill="#FDAD00"/>
<path d="M26.8247 3.65493L24.9038 39.5808L61.3927 0L26.8247 3.65493Z" fill="#FDD231"/>
<path d="M97.8814 39.5811L95.961 3.65469L61.3929 0.000244141L97.8814 39.5811Z" fill="#FDD231"/>
<path d="M97.8818 39.5809H122.723L95.9609 3.65454L97.8818 39.5809Z" fill="#FDAD00"/>
<path d="M0.0621338 39.5809H24.904L26.8249 3.65454L0.0621338 39.5809Z" fill="#FDAD00"/>
<path d="M61.3927 0L24.9038 39.5808H97.8816L61.3927 0Z" fill="#FEEEB7"/>
</svg>
