<svg width="142" height="111" viewBox="0 0 142 111" fill="none" xmlns="http://www.w3.org/2000/svg">
<path fill-rule="evenodd" clip-rule="evenodd" d="M15.2655 79.0493L0.494507 62.5297L45.7076 46.0723L52.7452 65.4081L15.2655 79.0493Z" fill="#F89920"/>
<path fill-rule="evenodd" clip-rule="evenodd" d="M15.1576 78.7511L14.4617 100.902L59.6748 84.4442L52.6373 65.1099L15.1576 78.7511Z" fill="#FFBE22"/>
<path fill-rule="evenodd" clip-rule="evenodd" d="M140.802 33.3914C147.254 52.0816 126.467 76.6412 94.1322 88.4109C61.7948 100.179 30.0852 94.7273 23.0121 76.2621L140.802 33.3914Z" fill="#F0670A"/>
<path fill-rule="evenodd" clip-rule="evenodd" d="M140.804 33.3906C133.777 14.878 102.033 9.40406 69.6633 21.1841C37.2918 32.9657 16.4946 57.5652 23.0124 76.2643L140.804 33.3906Z" fill="#FFD00E"/>
<path fill-rule="evenodd" clip-rule="evenodd" d="M140.799 33.3931C144.821 45.8986 122.253 65.3751 90.0175 77.1063C57.7808 88.8405 27.9738 88.4274 23.0166 76.2623L140.799 33.3931Z" fill="#F89920"/>
<path fill-rule="evenodd" clip-rule="evenodd" d="M140.801 33.3918C135.918 21.169 106.065 20.7352 73.7761 32.4886C41.4876 44.2405 18.8988 63.7599 23.0135 76.2625L140.801 33.3918Z" fill="#FFBE22"/>
<path d="M86.4624 16.4279C83.3856 5.78944 79.8853 -0.110949 75.9053 0.0015805C68.2104 0.220717 65.6237 24.6189 68.1141 55.8828C70.6312 87.4784 77.1594 111.213 85.2986 110.999C90.1521 110.871 92.8854 103.107 93.8449 89.6254C93.8642 89.35 93.5576 89.541 93.5754 89.2596C93.5754 89.2596 93.5354 88.768 93.3533 88.7562L92.3213 88.6896C91.4758 101.779 88.9143 109.321 85.2571 109.417C78.5675 109.592 72.1089 86.1132 69.6925 55.7584C67.3131 25.9011 69.8746 1.75613 75.9512 1.5829C78.8281 1.50146 82.0515 6.93545 84.9032 16.7329C84.9032 16.7329 86.4638 16.4323 86.4623 16.4279L86.4624 16.4279Z" fill="#F0670A"/>
<path d="M48.3315 8.83654C41.7766 12.8743 51.7355 35.2958 69.524 61.1272C87.5006 87.2311 105.023 104.522 111.964 100.267C115.843 97.8888 114.755 90.6691 109.758 79.7715C109.717 79.6732 109.657 79.5841 109.581 79.5095C109.505 79.4349 109.415 79.3764 109.316 79.3374C109.217 79.2985 109.111 79.28 109.005 79.2829C108.899 79.2859 108.794 79.3103 108.697 79.3546C108.601 79.399 108.514 79.4624 108.442 79.5411C108.371 79.6198 108.316 79.7121 108.28 79.8126C108.245 79.913 108.231 80.0195 108.238 80.1257C108.245 80.2319 108.273 80.3355 108.322 80.4304C112.965 90.5625 113.963 97.1855 111.136 98.9178C105.431 102.414 88.1003 85.3107 70.827 60.2284C53.8395 35.5623 43.9843 13.3733 49.1621 10.1839C51.9102 8.49006 58.4488 12.5767 67.0884 21.4028C67.1846 21.5005 67.7369 22.0736 67.8598 22.1106C68.1278 22.192 67.993 21.6249 68.2077 21.4147C68.2821 21.342 68.3414 21.2554 68.3823 21.1598C68.4232 21.0642 68.4448 20.9614 68.4459 20.8575C68.447 20.7535 68.4276 20.6503 68.3888 20.5538C68.35 20.4574 68.2925 20.3695 68.2197 20.2953C58.9892 10.8665 52.0627 6.53708 48.3315 8.83505V8.83654Z" fill="#F0670A"/>
</svg>
